Coordinates
version=1
nRows=31
nColumns=33
inDegrees=yes

Units are S.I. units (second, meters, Newtons, ...)
Angles are in degrees.

endheader
time	ground_thorax_rot_x	ground_thorax_rot_y	ground_thorax_rot_z	ground_thorax_tx	ground_thorax_ty	ground_thorax_tz	clav_prot_r	clav_elev_r	scapula_abduction_r	scapula_elevation_r	scapula_upward_rot_r	scapula_winging_r	shoulder_elv_r	plane_of_elev_r	axial_rot_r	elbow_flexion_r	pro_sup_r	wrist_flex_r	wrist_dev_r	clav_prot_l	clav_elev_l	scapula_abduction_l	scapula_elevation_l	scapula_upward_rot_l	scapula_winging_l	shoulder_elv_l	plane_of_elev_l	axial_rot_l	elbow_flexion_l	pro_sup_l	wrist_flex_l	wrist_dev_l	
10.0300	-40.205112	-2.095424	-2.357571	-9.496058	810.544715	-0.006381	3.419150	-45.000000	45.000000	-45.000000	-3.898959	-3687.705416	-2096.963954	29.588599	71.927633	731.029833	20.568753	17.732501	9.978403	14.987446	42.581264	-45.000000	-41.181061	-21.730992	1518.102424	-1901.155111	135.695466	-180.008587	1085.899089	16.337511	13.579688	-18.631823	
10.0400	-40.041050	-2.446432	-2.222771	-7.882671	809.224387	0.397141	3.613632	-45.000000	44.999999	-45.000000	-4.285968	-3687.570411	-2097.051230	29.541224	72.157372	730.882485	20.402265	17.644275	10.054209	14.933843	42.257961	-45.000000	-40.841963	-21.903996	1518.035117	-1901.085114	135.618072	-179.994094	1085.733359	16.881632	13.400780	-18.532900	
10.0500	-39.880865	-2.761187	-2.144644	-6.394634	807.959871	0.791985	3.754231	-45.000000	44.999999	-45.000000	-4.599196	-3687.411332	-2097.114405	29.467984	72.379796	730.752981	20.237085	17.576887	10.165037	14.939693	41.983368	-45.000000	-40.539942	-22.004647	1517.955914	-1901.056006	135.569911	-179.991714	1085.569654	17.437766	13.182326	-18.446847	
10.0600	-39.718578	-3.008402	-2.138278	-5.170138	806.823648	1.170206	3.836891	-45.000000	44.999998	-45.000000	-4.822731	-3687.284701	-2097.168677	29.403978	72.589317	730.625596	20.061628	17.503400	10.249843	14.883254	41.727937	-44.999999	-40.240869	-21.942519	1517.905142	-1901.068628	135.567365	-179.990182	1085.440847	18.004730	12.932645	-18.372554	
10.0700	-39.560508	-3.201797	-2.191661	-4.233663	805.814541	1.528000	3.873322	-45.000000	44.999996	-45.000000	-4.973037	-3687.185866	-2097.211108	29.340410	72.781740	730.509197	19.886638	17.436142	10.327332	14.809202	41.513516	-44.999999	-39.962218	-21.774490	1517.881085	-1901.110645	135.590755	-179.991237	1085.340454	18.584789	12.652479	-18.316670	
10.0800	-39.412167	-3.351104	-2.294687	-3.626195	804.939865	1.860430	3.870600	-45.000000	44.999992	-45.000000	-5.064462	-3687.116907	-2097.243183	29.273809	72.957776	730.407510	19.719281	17.379423	10.401133	14.722746	41.350441	-44.999997	-39.708877	-21.526131	1517.888656	-1901.174256	135.637038	-179.994361	1085.267728	19.176375	12.337016	-18.281046	
10.0900	-39.277653	-3.466411	-2.427557	-3.355673	804.186470	2.163776	3.855313	-45.000000	44.999986	-45.000000	-5.129897	-3687.089945	-2097.273098	29.213853	73.119772	730.313489	19.569449	17.330368	10.463393	14.632921	41.232721	-44.999995	-39.490290	-21.263038	1517.926415	-1901.236081	135.678315	-179.996925	1085.214974	19.777785	12.020391	-18.267911	
10.1000	-39.160731	-3.572461	-2.565306	-3.413644	803.532410	2.435087	3.838474	-45.000000	44.999975	-45.000000	-5.199008	-3687.090330	-2097.293545	29.149600	73.282272	730.234153	19.446602	17.297035	10.528337	14.555382	41.156676	-44.999992	-39.312694	-21.031479	1517.989375	-1901.297921	135.716073	-179.998963	1085.172482	20.377934	11.693996	-18.273437	
10.1100	-39.061669	-3.665392	-2.699152	-3.789706	802.956510	2.671762	3.840318	-45.000000	44.999955	-45.000000	-5.291037	-3687.135914	-2097.316835	29.100075	73.453223	730.157598	19.353780	17.267828	10.571613	14.482724	41.106450	-44.999985	-39.181246	-20.869996	1518.067947	-1901.341865	135.731070	-179.998323	1085.139646	20.968181	11.410532	-18.298309	
10.1200	-38.979368	-3.755116	-2.819563	-4.473033	802.438871	2.871417	3.852207	-45.000000	44.999920	-45.000000	-5.410423	-3687.207721	-2097.330037	29.048534	73.652058	730.089731	19.293272	17.248907	10.608850	14.426703	41.072002	-44.999973	-39.095079	-20.778151	1518.154263	-1901.385950	135.741725	-179.997725	1085.113268	21.528062	11.146584	-18.336945	
10.1300	-38.908977	-3.836780	-2.925821	-5.453423	801.961030	3.031813	3.880397	-45.000000	44.999857	-45.000000	-5.557098	-3687.323101	-2097.339589	29.009213	73.883350	730.025264	19.263257	17.232736	10.623497	14.389385	41.046055	-44.999952	-39.042524	-20.765170	1518.246547	-1901.415922	135.739953	-179.996781	1085.089871	22.038440	10.939356	-18.388264	
10.1400	-38.849679	-3.928658	-3.001997	-6.721953	801.506432	3.150886	3.917446	-45.000000	44.999744	-45.000000	-5.738199	-3687.464228	-2097.332400	28.959094	74.160903	729.976957	19.263381	17.228359	10.635797	14.372964	41.022045	-44.999915	-39.009398	-20.822839	1518.352540	-1901.447965	135.746649	-179.996390	1085.071326	22.469174	10.747286	-18.446516	
10.1500	-38.802620	-4.021293	-3.056153	-8.271089	801.060665	3.226916	3.973294	-45.000000	44.999541	-45.000000	-5.953431	-3687.649598	-2097.326724	28.915846	74.476706	729.937433	19.288294	17.225428	10.624312	14.376696	41.006867	-44.999847	-38.994121	-20.963855	1518.465749	-1901.460107	135.751047	-179.996144	1085.059571	22.807088	10.618981	-18.512587	
10.1600	-38.768656	-4.125525	-3.078896	-10.094708	800.612111	3.258761	4.040974	-45.000000	44.999178	-45.000000	-6.210123	-3687.857981	-2097.310402	28.856199	74.834251	729.910210	19.335628	17.230069	10.611533	14.403310	40.994411	-44.999727	-38.993780	-21.180113	1518.588633	-1901.469798	135.766408	-179.996861	1085.050242	23.036127	10.510312	-18.581238	
10.1700	-38.749347	-4.232424	-3.079586	-12.187867	800.152130	3.246165	4.131495	-45.000000	44.998527	-45.000000	-6.511582	-3688.103702	-2097.299412	28.799821	75.217435	729.887741	19.398173	17.232070	10.577493	14.452012	40.992515	-44.999510	-39.015206	-21.487493	1518.708760	-1901.459482	135.783700	-179.997535	1085.044276	23.160379	10.469531	-18.651623	
10.1800	-38.748110	-4.349763	-3.055384	-14.546350	799.675359	3.189957	4.242060	-45.000000	44.997362	-45.000000	-6.868473	-3688.351280	-2097.276330	28.724291	75.622116	729.872069	19.472293	17.236749	10.543868	14.523650	40.999436	-44.999123	-39.072944	-21.878480	1518.819146	-1901.456766	135.819413	-179.998579	1085.044769	23.183500	10.452088	-18.722488	
10.1900	-38.764882	-4.486832	-2.992048	-17.166322	799.179698	3.091994	4.390829	-45.000000	44.995272	-45.000000	-7.305901	-3688.616607	-2097.252484	28.645836	76.026848	729.857963	19.550107	17.236946	10.497495	14.632575	41.025824	-44.998429	-39.175462	-22.411446	1518.904466	-1901.440809	135.855062	-179.999035	1085.051372	23.122990	10.479688	-18.786820	
10.2000	-38.793391	-4.641514	-2.893668	-20.043568	798.666184	2.954949	4.560726	-45.000000	44.991537	-45.000000	-7.809033	-3688.879202	-2097.209151	28.547024	76.430438	729.847225	19.629175	17.239086	10.459405	14.763409	41.061421	-44.997188	-39.308221	-23.039411	1518.979347	-1901.433243	135.898566	-179.999304	1085.060861	22.996503	10.509767	-18.846627	
10.2100	-38.828372	-4.826880	-2.737550	-23.173554	798.138441	2.781854	4.759837	-45.000000	44.984824	-45.000000	-8.401149	-3689.178326	-2097.165560	28.454147	76.833579	729.835585	19.705932	17.239624	10.424504	14.936162	41.095842	-44.994958	-39.455748	-23.806980	1519.054602	-1901.411118	135.922143	-179.998892	1085.072079	22.828056	10.548716	-18.892891	
10.2200	-38.871037	-5.041504	-2.535651	-26.550327	797.602276	2.575746	4.972390	-45.000000	44.972859	-45.000000	-9.080874	-3689.498170	-2097.118231	28.367431	77.255655	729.824101	19.781694	17.243401	10.407809	15.145950	41.103770	-44.990980	-39.607741	-24.662853	1519.146983	-1901.393535	135.935992	-179.998024	1085.081433	22.638716	10.576787	-18.931012	
10.2300	-38.920308	-5.296257	-2.271886	-30.166708	797.064944	2.339346	5.204914	-45.000000	44.951263	-45.000000	-9.867168	-3689.860547	-2097.082494	28.301493	77.702900	729.811436	19.855550	17.247534	10.400201	15.406361	41.079678	-44.983808	-39.759818	-25.647014	1519.254719	-1901.361650	135.922959	-179.996635	1085.086508	22.450663	10.605730	-18.956098	
10.2400	-38.975427	-5.566785	-1.981792	-34.013752	796.534682	2.075036	5.434255	-45.000000	44.913032	-45.000000	-10.719584	-3690.237418	-2097.048440	28.244186	78.186827	729.801305	19.930231	17.254491	10.401412	15.678731	41.017308	-44.971093	-39.907729	-26.672282	1519.377724	-1901.335106	135.906219	-179.993488	1085.087181	22.286089	10.644470	-18.981430	
10.2500	-39.037746	-5.851831	-1.657065	-38.081441	796.020070	1.784940	5.661579	-45.000000	44.843283	-45.000000	-11.644247	-3690.635566	-2097.027964	28.197931	78.699428	729.788678	20.008796	17.258336	10.397664	15.955598	40.933346	-44.947948	-40.064903	-27.777550	1519.496152	-1901.294728	135.872671	-179.989686	1085.090101	22.162855	10.696059	-19.001700	
10.2600	-39.112890	-6.152219	-1.302221	-42.357959	795.529911	1.471214	5.885228	-45.000000	44.721876	-45.000000	-12.660286	-3691.012576	-2097.003020	28.149289	79.236131	729.779816	20.096851	17.262309	10.386909	16.219983	40.836815	-44.907517	-40.246514	-28.928219	1519.589874	-1901.256285	135.851403	-179.985153	1085.096876	22.084496	10.765508	-19.025803	
10.2700	-39.203364	-6.495309	-0.871901	-46.830218	795.072990	1.136226	6.101322	-45.000000	44.494539	-45.000000	-13.845142	-3691.346794	-2096.964264	28.095333	79.762516	729.771376	20.200203	17.263469	10.363090	16.465170	40.752870	-44.832226	-40.480738	-30.203571	1519.626162	-1901.201611	135.826466	-179.980823	1085.108812	22.043204	10.833806	-19.043400	
10.2800	-39.316212	-6.893011	-0.351276	-51.483507	794.658226	0.782700	6.301972	-45.000000	44.114841	-45.000000	-15.269388	-3691.599769	-2096.897065	28.040188	80.274691	729.768044	20.328162	17.265639	10.328806	16.676852	40.681020	-44.705358	-40.779705	-31.584003	1519.594218	-1901.131929	135.806083	-179.972816	1085.126371	22.028776	10.911356	-19.060307	
10.2900	-39.486331	-7.488891	0.457258	-56.302182	794.294782	0.413595	6.502514	-45.000000	43.357853	-45.000000	-17.397300	-3691.666553	-2096.770769	28.027864	80.717385	729.766351	20.486163	17.265512	10.276117	16.900977	40.643720	-44.455770	-41.224792	-33.274726	1519.423473	-1901.010060	135.777857	-179.964149	1085.150841	21.969005	10.992210	-19.068280	
10.3000	-39.720426	-8.303476	1.568337	-61.269155	793.992160	0.031935	6.710895	-45.000000	42.216352	-45.000000	-20.281697	-3691.550189	-2096.582321	28.081073	81.123769	729.772735	20.688020	17.266534	10.202772	17.145326	40.631606	-44.071021	-41.814913	-35.253521	1519.126890	-1900.832578	135.745369	-179.958606	1085.180858	21.868959	11.093015	-19.076656	
10.3100	-40.012026	-9.327849	2.962148	-66.366779	793.760251	-0.359545	6.925286	-45.000000	40.708269	-45.000000	-23.862018	-3691.258741	-2096.321105	28.190121	81.478918	729.788571	20.942899	17.270421	10.116212	17.403592	40.647456	-43.544265	-42.544941	-37.478116	1518.707500	-1900.600787	135.716643	-179.959530	1085.219494	21.752884	11.202579	-19.088422	
10.3200	-40.311336	-10.380916	4.391439	-71.577073	793.609078	-0.758643	7.149145	-45.000000	39.117228	-45.000000	-27.564048	-3690.948808	-2096.033604	28.327807	81.874440	729.813769	21.265960	17.275030	10.017417	17.633194	40.651252	-42.949708	-43.286704	-39.652656	1518.269742	-1900.342588	135.701626	-179.964816	1085.266152	21.730925	11.322558	-19.116161	
10.3300	-40.588655	-11.384634	5.754092	-76.882176	793.548618	-1.163776	7.396261	-45.000000	37.572235	-45.000000	-31.102861	-3690.672142	-2095.729174	28.448417	82.292842	729.852139	21.660722	17.288221	9.934663	17.836008	40.619678	-42.319627	-43.975060	-41.637526	1517.835036	-1900.086490	135.737987	-179.974301	1085.318605	21.841772	11.427042	-19.161391	
